<svg width="40" height="40" viewBox="0 0 40 40" fill="none" xmlns="http://www.w3.org/2000/svg">
<path d="M20.0005 22.5657C20.199 22.5658 20.3891 22.643 20.5317 22.7806L20.5425 22.7913L26.1733 28.4232C26.7749 29.0247 27.185 29.791 27.3511 30.6253C27.5171 31.4598 27.4316 32.3256 27.106 33.1116C26.7804 33.8974 26.2292 34.5688 25.522 35.0413C24.8146 35.5139 23.983 35.7669 23.1323 35.7669H22.7944C21.9723 35.7687 21.1646 35.5502 20.4556 35.1341L20.0005 34.8665L19.5444 35.1341C18.8354 35.5502 18.0277 35.7688 17.2056 35.7669H16.8696C16.0187 35.7672 15.1866 35.5148 14.479 35.0423C13.7714 34.5697 13.2198 33.8977 12.894 33.1116C12.5684 32.3257 12.483 31.4607 12.6489 30.6263C12.8149 29.7917 13.2249 29.0248 13.8267 28.4232L19.4585 22.7894C19.6022 22.6459 19.7974 22.5657 20.0005 22.5657ZM31.4673 12.5667C32.5659 12.5664 33.6228 12.987 34.4214 13.7415C35.17 14.4489 35.638 15.3994 35.7446 16.4193L35.7612 16.6243L35.7681 16.8685V17.2054C35.77 18.0276 35.5515 18.8351 35.1353 19.5443L34.8677 20.0003L35.1362 20.4554C35.4845 21.0482 35.7031 21.7288 35.7554 22.4632L35.7681 22.7962V23.1302L35.7573 23.4398C35.706 24.1581 35.4752 24.854 35.0835 25.4622C34.6358 26.1574 33.9967 26.7085 33.2437 27.0501C32.4906 27.3917 31.6554 27.509 30.8374 27.388C30.0242 27.2677 29.263 26.9168 28.6431 26.3773L28.4243 26.1732H28.4253L22.7915 20.5423H22.7925C22.6606 20.4102 22.5814 20.2345 22.5698 20.0482C22.5585 19.8652 22.6127 19.6844 22.7231 19.5384L22.8081 19.4427L28.4253 13.8265C29.2314 13.0203 30.3266 12.5668 31.4673 12.5667ZM16.8687 4.2337H17.2036C18.0258 4.23182 18.8334 4.45038 19.5425 4.86652L19.9985 5.13312L20.4536 4.86652C21.0652 4.50791 21.7514 4.29504 22.4585 4.24542L22.7993 4.2337H23.1294C23.9561 4.2333 24.7654 4.4707 25.4604 4.91827C26.1557 5.36601 26.7077 6.00507 27.0493 6.75812C27.3908 7.51102 27.5082 8.34654 27.3872 9.16437C27.2665 9.98058 26.9126 10.7444 26.3696 11.3655L26.1519 11.597L20.5405 17.2093C20.4084 17.3412 20.2327 17.4204 20.0464 17.4319C19.8644 17.4431 19.6851 17.3889 19.5396 17.2796L19.4399 17.1917L13.8247 11.5765C13.2379 10.9896 12.8331 10.2455 12.6597 9.4339C12.4862 8.62224 12.5514 7.77776 12.8472 7.00226C13.1429 6.22668 13.6567 5.55288 14.3267 5.06281C14.9955 4.5736 15.7915 4.28826 16.6187 4.24054L16.8687 4.23273V4.2337ZM4.23389 16.8704C4.23339 16.3054 4.3442 15.7461 4.56006 15.2239C4.77594 14.7018 5.09236 14.2271 5.4917 13.8275C5.89119 13.4277 6.36605 13.1101 6.88818 12.8939C7.41052 12.6775 7.96892 12.5665 8.53369 12.5667C9.57937 12.5668 10.5826 12.9458 11.3628 13.6273L11.5952 13.846L17.2085 19.4573C17.3403 19.5894 17.4195 19.7652 17.4312 19.9515C17.4425 20.1344 17.3862 20.3142 17.2759 20.4603L17.1753 20.5735L11.5757 26.1732C10.9886 26.7595 10.2446 27.164 9.43311 27.3372C8.62151 27.5104 7.77685 27.4444 7.00146 27.1487C6.22623 26.8531 5.55313 26.3397 5.06299 25.6702C4.63405 25.0843 4.3614 24.4007 4.26807 23.6839L4.23877 23.3753L4.23291 23.1321H4.23389V22.7962C4.23397 21.9365 4.46655 21.1376 4.8667 20.4544L5.1333 19.9993L4.8667 19.5452C4.50799 18.9335 4.29514 18.2467 4.24561 17.5394L4.23389 17.2054V16.8704Z" stroke="white" stroke-width="1.8"/>
</svg>
