<svg width="40" height="40" viewBox="0 0 40 40" fill="none" xmlns="http://www.w3.org/2000/svg">
<path d="M6.60303 4.69586V33.397H18.7456V35.3043H6.75342C6.20768 35.3043 5.68425 35.0876 5.29834 34.7017C4.91243 34.3158 4.6958 33.7924 4.6958 33.2466V4.69586H6.60303ZM32.1431 22.358H35.3042V26.6236C35.3041 29.5841 32.8956 31.9927 29.9351 31.9927H28.6812V35.3043H26.7729V31.9927H25.519C23.1669 31.9925 21.2534 30.0793 21.2534 27.7271V24.566H24.4155C25.3756 24.5647 26.3081 24.8889 27.0601 25.4859L27.2075 25.6031L27.2886 25.4322C27.7244 24.5134 28.4119 23.7371 29.271 23.1929C30.1302 22.6487 31.1261 22.3593 32.1431 22.358ZM23.1616 27.7271C23.1616 29.0274 24.2188 30.0853 25.519 30.0855H26.7729V28.8316C26.7729 27.5312 25.716 26.4732 24.4155 26.4732H23.1616V27.7271ZM32.1431 24.2652C30.2344 24.2652 28.6812 25.8185 28.6812 27.7271V30.0855H29.9351C31.8437 30.0855 33.3969 28.5322 33.397 26.6236V24.2652H32.1431ZM35.3042 6.90289V14.3306H33.397V10.1597L23.9858 19.5709C23.8071 19.7494 23.5647 19.8501 23.312 19.8502C23.0592 19.8502 22.8161 19.7496 22.6372 19.5709L17.8979 14.8316L17.7925 14.7252L10.522 21.9957L9.17236 20.6461L17.1177 12.7027C17.2966 12.5239 17.5395 12.4234 17.7925 12.4234C18.0453 12.4235 18.2875 12.5239 18.4663 12.7027L23.2056 17.441L23.312 17.5474L23.4175 17.441L31.7915 9.06696L32.0483 8.8111H27.8774V6.90289H35.3042Z" fill="white" stroke="#181818" stroke-width="0.3"/>
</svg>
