<svg width="32" height="36" viewBox="0 0 32 36" fill="none" xmlns="http://www.w3.org/2000/svg">
<path d="M29.0249 8.01601C29.5971 8.34244 30.0723 8.8151 30.4018 9.38559C30.7312 9.95608 30.9032 10.6039 30.8999 11.2627V23.4027C30.8999 24.751 30.1616 25.9943 28.9699 26.6493L17.7199 33.766C17.1621 34.0721 16.5361 34.2325 15.8999 34.2325C15.2637 34.2325 14.6377 34.0721 14.0799 33.766L2.8299 26.6493C2.24743 26.33 1.76117 25.8604 1.42175 25.2894C1.08232 24.7185 0.902118 24.0669 0.899902 23.4027V11.261C0.899902 9.91267 1.63824 8.67101 2.8299 8.01601L14.0799 1.38267C14.6541 1.06607 15.2992 0.900024 15.9549 0.900024C16.6106 0.900024 17.2557 1.06607 17.8299 1.38267L29.0799 8.01601H29.0249Z" stroke="white" stroke-width="1.8" stroke-linecap="round" stroke-linejoin="round"/>
</svg>
